<?xml version="1.0" standalone="no"?><!DOCTYPE svg PUBLIC "-//W3C//DTD SVG 1.1//EN" "http://www.w3.org/Graphics/SVG/1.1/DTD/svg11.dtd"><svg t="1658313146272" class="icon" viewBox="0 0 1024 1024" version="1.1" xmlns="http://www.w3.org/2000/svg" p-id="2508" width="50" height="50" xmlns:xlink="http://www.w3.org/1999/xlink"><defs><style type="text/css">@font-face { font-family: feedback-iconfont; src: url("//at.alicdn.com/t/font_1031158_u69w8yhxdu.woff2?t=1630033759944") format("woff2"), url("//at.alicdn.com/t/font_1031158_u69w8yhxdu.woff?t=1630033759944") format("woff"), url("//at.alicdn.com/t/font_1031158_u69w8yhxdu.ttf?t=1630033759944") format("truetype"); }
</style></defs><path d="M512.1 613.1c-56.8 0-111.8-7.4-163.5-21.9-49.7-14-94.2-33.9-132.3-59.2-76.2-50.8-118.2-117.3-118.2-187.5 0-52.8 24-104.1 69.3-148.2 41.2-40.1 97.3-72.1 163.3-93.1 16.9 72.2 91.6 125.6 181.4 125.6s164.6-53.5 181.4-125.6c65.9 21 122.1 52.9 163.3 93.1 45.3 44.1 69.3 95.4 69.3 148.2 0 70.2-42 136.7-118.2 187.4-38.1 25.3-82.6 45.3-132.3 59.2-51.7 14.6-106.7 22-163.5 22z" fill="#FFFFFF" p-id="2509"></path><path d="M706.5 128.8c21.2 7.7 41.3 16.7 60.1 26.9 29.5 15.9 55.1 34.4 76.2 55C884.2 251 906 297.3 906 344.6c0 31.2-9.4 61.8-27.9 90.8-18.8 29.6-46.2 56.5-81.4 79.9-36.4 24.2-79 43.2-126.6 56.6-50 14.1-103.2 21.2-158.1 21.2s-108-7.1-158-21.2c-47.7-13.4-90.3-32.5-126.6-56.6-35.2-23.4-62.6-50.3-81.4-79.9-18.5-29.1-27.9-59.6-27.9-90.8 0-47.3 21.9-93.6 63.2-133.9 21.1-20.6 46.8-39 76.2-55 18.8-10.2 38.9-19.1 60.1-26.9 27.4 70.2 104 120.1 194.5 120.1S679.3 199 706.5 128.8M677 77.5c-3.3 73-75.8 131.4-164.9 131.4S350.5 150.5 347.3 77.5c-158 43.2-269.2 146.5-269.2 267 0 159.4 194.3 288.6 434 288.6s434-129.2 434-288.6c0-120.5-111.2-223.8-269.1-267z" p-id="2510"></path><path d="M946 338.3c-0.1-1.7-0.1-3.3-0.2-5v-0.2l-0.3-4.8c0-0.4-0.1-0.8-0.1-1.2-0.1-1.6-0.3-3.3-0.5-4.9v-0.4c-0.2-1.5-0.4-3.1-0.6-4.6-0.1-0.4-0.1-0.8-0.2-1.2-0.2-1.6-0.5-3.2-0.8-4.8 0-0.2-0.1-0.3-0.1-0.5-0.3-1.5-0.5-3-0.8-4.4-0.1-0.4-0.2-0.8-0.2-1.2-0.3-1.6-0.7-3.2-1-4.8 0-0.2-0.1-0.4-0.1-0.6-0.3-1.4-0.7-2.9-1.1-4.3-0.1-0.4-0.2-0.7-0.3-1.1-0.4-1.6-0.8-3.2-1.3-4.7-0.1-0.2-0.1-0.4-0.2-0.7-0.4-1.4-0.8-2.8-1.3-4.2-0.1-0.4-0.2-0.7-0.3-1.1-0.5-1.6-1-3.1-1.6-4.7-0.1-0.2-0.2-0.5-0.3-0.7-0.5-1.4-1-2.7-1.5-4.1-0.1-0.3-0.3-0.7-0.4-1-0.6-1.5-1.2-3.1-1.8-4.6-0.1-0.3-0.2-0.5-0.3-0.8-0.6-1.3-1.1-2.7-1.7-4-0.1-0.3-0.3-0.6-0.4-1l-2.1-4.5c-0.1-0.3-0.2-0.5-0.4-0.8-0.6-1.3-1.3-2.7-1.9-4-0.1-0.3-0.3-0.6-0.4-0.9-0.8-1.5-1.5-3-2.3-4.5-0.1-0.3-0.3-0.5-0.4-0.8-0.7-1.3-1.4-2.6-2.2-3.9-0.2-0.3-0.3-0.5-0.5-0.8-0.8-1.5-1.7-3-2.6-4.4-0.2-0.3-0.3-0.5-0.5-0.8l-2.4-3.9c-0.2-0.2-0.3-0.5-0.5-0.7-0.9-1.5-1.9-2.9-2.8-4.4-0.2-0.3-0.4-0.5-0.5-0.8-0.9-1.3-1.7-2.6-2.6-3.9-0.1-0.2-0.3-0.4-0.4-0.6-1-1.4-2-2.9-3.1-4.3-0.2-0.3-0.4-0.5-0.6-0.8-1-1.3-1.9-2.6-2.9-3.9-0.1-0.2-0.3-0.4-0.4-0.5l-3.3-4.2c-0.2-0.3-0.4-0.5-0.6-0.8-1-1.3-2.1-2.6-3.2-3.9-0.1-0.1-0.2-0.3-0.3-0.4l-3.6-4.2c-0.2-0.3-0.4-0.5-0.7-0.7-1.1-1.3-2.3-2.6-3.5-3.9l-0.3-0.3c-1.3-1.4-2.5-2.7-3.8-4.1l-0.7-0.7c-1.2-1.3-2.5-2.6-3.8-3.9l-0.2-0.2-4-4-0.7-0.7c-2.7-2.7-5.5-5.3-8.4-7.9-0.2-0.2-0.5-0.4-0.7-0.7-2.9-2.6-5.8-5.2-8.9-7.7-0.2-0.2-0.5-0.4-0.7-0.6-3-2.5-6.1-5-9.3-7.5-0.2-0.2-0.5-0.4-0.7-0.6-3.2-2.5-6.4-4.9-9.7-7.3-0.2-0.2-0.5-0.4-0.7-0.5-3.3-2.4-6.7-4.7-10.1-7.1-0.2-0.2-0.5-0.3-0.7-0.5-3.5-2.3-7-4.6-10.6-6.8-0.2-0.1-0.5-0.3-0.7-0.4-3.6-2.2-7.3-4.5-11-6.6-0.2-0.1-0.5-0.3-0.7-0.4-3.7-2.2-7.5-4.3-11.4-6.4l-0.6-0.3c-3.9-2.1-7.8-4.1-11.8-6.1l-0.6-0.3c-2-1-4-2-6.1-3h-0.1c-2-1-4-1.9-6-2.9-0.2-0.1-0.4-0.2-0.5-0.3-2.1-1-4.2-1.9-6.3-2.9-0.1 0-0.1-0.1-0.2-0.1-2-0.9-4.1-1.8-6.2-2.7-0.2-0.1-0.3-0.1-0.5-0.2-2.1-0.9-4.3-1.8-6.4-2.7-0.1 0-0.2-0.1-0.2-0.1-2.1-0.9-4.2-1.7-6.3-2.6-0.1-0.1-0.3-0.1-0.4-0.2-2.2-0.9-4.4-1.7-6.6-2.6-0.1 0-0.2-0.1-0.3-0.1-2.1-0.8-4.3-1.6-6.5-2.4-0.1 0-0.2-0.1-0.3-0.1-2.2-0.8-4.5-1.6-6.7-2.4-0.1 0-0.3-0.1-0.4-0.1-2.2-0.8-4.4-1.5-6.6-2.3-0.1 0-0.2-0.1-0.2-0.1-2.3-0.8-4.6-1.5-6.9-2.2-0.2-0.1-0.3-0.1-0.5-0.2-2.3-0.7-4.5-1.4-6.8-2.1h-0.1c-2.3-0.7-4.7-1.4-7-2.1-0.2-0.1-0.4-0.1-0.6-0.2-2.3-0.7-4.7-1.3-7-2-0.6 13.6-3.6 26.8-8.7 39.1 0.7 0.2 1.3 0.4 2 0.5 47.7 13.4 90.3 32.5 126.6 56.6 35.2 23.4 62.6 50.3 81.4 79.9 18.5 29.1 27.9 59.6 27.9 90.8 0 31.2-9.4 61.8-27.9 90.8s-45.1 55.4-79.2 78.4v47.2c0.2-0.1 0.3-0.2 0.5-0.3 0.8-0.5 1.6-1 2.4-1.4 0.5-0.3 1.1-0.6 1.6-1 0.9-0.5 1.7-1.1 2.6-1.6 0.5-0.3 0.9-0.6 1.4-0.9l3.3-2.1c0.2-0.1 0.4-0.3 0.6-0.4 1.3-0.8 2.6-1.7 3.9-2.5 0.4-0.3 0.8-0.5 1.2-0.8 0.9-0.6 1.8-1.2 2.6-1.7 0.5-0.3 1-0.7 1.5-1 0.8-0.5 1.5-1 2.3-1.6 0.5-0.4 1.1-0.7 1.6-1.1 0.7-0.5 1.4-1 2.2-1.5 0.5-0.4 1.1-0.8 1.6-1.1l2.1-1.5c0.5-0.4 1.1-0.8 1.6-1.2 0.7-0.5 1.4-1 2-1.5 0.5-0.4 1.1-0.8 1.6-1.2 0.7-0.5 1.3-1 2-1.5 0.5-0.4 1.1-0.8 1.6-1.2 0.7-0.5 1.3-1 2-1.5 0.5-0.4 1-0.8 1.6-1.2 0.7-0.5 1.3-1 2-1.6l1.5-1.2c0.7-0.5 1.3-1.1 2-1.6 0.5-0.4 1-0.8 1.4-1.2l2.1-1.8c0.4-0.3 0.8-0.7 1.3-1 0.9-0.7 1.7-1.5 2.6-2.2 0.3-0.2 0.5-0.4 0.8-0.7 1.1-1 2.2-1.9 3.3-2.9 0.3-0.3 0.6-0.6 0.9-0.8 0.8-0.7 1.5-1.4 2.3-2.1 0.4-0.4 0.8-0.7 1.2-1.1 0.7-0.6 1.3-1.2 2-1.8 0.4-0.4 0.9-0.8 1.3-1.2 0.6-0.6 1.2-1.2 1.8-1.7l1.3-1.3c0.6-0.6 1.2-1.1 1.7-1.7l1.3-1.3 1.7-1.7c0.4-0.5 0.9-0.9 1.3-1.4 0.6-0.6 1.1-1.1 1.6-1.7 0.4-0.5 0.9-0.9 1.3-1.4 0.5-0.6 1.1-1.1 1.6-1.7 0.4-0.5 0.8-0.9 1.3-1.4 0.5-0.6 1.1-1.2 1.6-1.8 0.4-0.4 0.8-0.9 1.2-1.3 0.5-0.6 1.1-1.2 1.6-1.8 0.4-0.4 0.8-0.9 1.1-1.3 0.6-0.7 1.1-1.3 1.7-2 0.3-0.4 0.7-0.8 1-1.2 0.7-0.8 1.3-1.6 1.9-2.3 0.2-0.3 0.5-0.6 0.7-0.9 0.9-1.1 1.7-2.1 2.6-3.2 0.2-0.3 0.4-0.6 0.7-0.8 0.6-0.8 1.3-1.6 1.9-2.4l0.9-1.2c0.5-0.7 1-1.4 1.5-2 0.3-0.5 0.7-0.9 1-1.4 0.5-0.6 0.9-1.3 1.4-1.9 0.3-0.5 0.7-1 1-1.4 0.4-0.6 0.9-1.3 1.3-1.9 0.3-0.5 0.7-1 1-1.5 0.4-0.6 0.9-1.2 1.3-1.9 0.3-0.5 0.7-1 1-1.5 0.4-0.6 0.8-1.2 1.2-1.9 0.3-0.5 0.7-1 1-1.5 0.4-0.6 0.8-1.3 1.2-1.9l0.9-1.5c0.4-0.6 0.8-1.3 1.2-1.9l0.9-1.5c0.4-0.7 0.8-1.3 1.2-2 0.3-0.5 0.6-0.9 0.8-1.4l1.2-2.1c0.2-0.4 0.5-0.9 0.7-1.3 0.4-0.8 0.9-1.6 1.3-2.4 0.2-0.3 0.4-0.7 0.5-1 0.6-1.2 1.2-2.3 1.8-3.5 0.1-0.2 0.2-0.5 0.4-0.7 0.5-0.9 0.9-1.9 1.4-2.8 0.2-0.4 0.4-0.9 0.6-1.3 0.4-0.7 0.7-1.5 1.1-2.2 0.2-0.5 0.4-1 0.7-1.4 0.3-0.7 0.6-1.4 1-2.1 0.2-0.5 0.4-1 0.7-1.5 0.3-0.7 0.6-1.4 0.9-2 0.2-0.5 0.4-1 0.7-1.6 0.3-0.7 0.6-1.3 0.8-2 0.2-0.5 0.4-1.1 0.6-1.6 0.3-0.7 0.5-1.3 0.8-2 0.2-0.5 0.4-1.1 0.6-1.6 0.3-0.7 0.5-1.4 0.7-2 0.2-0.5 0.4-1.1 0.6-1.6 0.2-0.7 0.5-1.4 0.7-2.1 0.2-0.5 0.4-1 0.5-1.6 0.2-0.7 0.5-1.4 0.7-2.1 0.2-0.5 0.3-1 0.5-1.5 0.2-0.7 0.5-1.5 0.7-2.3 0.1-0.5 0.3-1 0.4-1.4 0.2-0.8 0.5-1.7 0.7-2.5l0.3-1.2c0.3-1.2 0.7-2.5 1-3.7 0-0.2 0.1-0.3 0.1-0.5 0.3-1.1 0.5-2.2 0.8-3.3 0.1-0.4 0.2-0.9 0.3-1.3 0.2-0.8 0.4-1.6 0.5-2.4l0.3-1.5c0.2-0.8 0.3-1.5 0.4-2.3 0.1-0.5 0.2-1.1 0.3-1.6 0.1-0.7 0.3-1.5 0.4-2.2 0.1-0.6 0.2-1.1 0.3-1.7l0.3-2.1c0.1-0.6 0.2-1.1 0.2-1.7l0.3-2.1c0.1-0.6 0.1-1.1 0.2-1.7 0.1-0.7 0.2-1.4 0.2-2.1 0.1-0.6 0.1-1.1 0.2-1.7 0.1-0.7 0.1-1.4 0.2-2.2 0-0.6 0.1-1.1 0.1-1.7 0.1-0.7 0.1-1.5 0.2-2.2 0-0.5 0.1-1.1 0.1-1.6 0-0.8 0.1-1.6 0.1-2.3 0-0.5 0.1-1 0.1-1.5 0-0.9 0.1-1.7 0.1-2.6v-1.3-3.9c0-1.7 0-3.3-0.1-5 0.2-0.2 0.1-0.6 0.1-1zM78.2 349.7c0 0.9 0 1.7 0.1 2.6 0 0.5 0 1 0.1 1.5 0 0.8 0.1 1.6 0.1 2.3 0 0.5 0.1 1.1 0.1 1.6 0.1 0.7 0.1 1.5 0.2 2.2 0 0.6 0.1 1.1 0.1 1.7 0.1 0.7 0.1 1.4 0.2 2.2 0.1 0.6 0.1 1.1 0.2 1.7 0.1 0.7 0.2 1.4 0.2 2.1 0.1 0.6 0.1 1.1 0.2 1.7l0.3 2.1c0.1 0.6 0.2 1.1 0.2 1.7l0.3 2.1c0.1 0.6 0.2 1.1 0.3 1.7 0.1 0.7 0.3 1.5 0.4 2.2 0.1 0.5 0.2 1.1 0.3 1.6 0.1 0.8 0.3 1.5 0.4 2.3l0.3 1.5c0.2 0.8 0.4 1.6 0.5 2.4 0.1 0.4 0.2 0.9 0.3 1.3 0.2 1.1 0.5 2.2 0.8 3.3 0 0.2 0.1 0.3 0.1 0.5 0.3 1.2 0.6 2.5 1 3.7l0.3 1.2c0.2 0.8 0.5 1.7 0.7 2.5 0.1 0.5 0.3 1 0.4 1.4 0.2 0.8 0.4 1.5 0.7 2.3 0.2 0.5 0.3 1 0.5 1.5 0.2 0.7 0.5 1.4 0.7 2.1 0.2 0.5 0.4 1 0.5 1.6 0.2 0.7 0.5 1.4 0.7 2.1 0.2 0.5 0.4 1.1 0.6 1.6 0.2 0.7 0.5 1.4 0.7 2 0.2 0.5 0.4 1.1 0.6 1.6 0.3 0.7 0.5 1.4 0.8 2 0.2 0.5 0.4 1.1 0.6 1.6 0.3 0.7 0.5 1.4 0.8 2 0.2 0.5 0.4 1 0.7 1.6l0.9 2.1c0.2 0.5 0.4 1 0.7 1.5 0.3 0.7 0.6 1.4 1 2.1 0.2 0.5 0.4 1 0.7 1.4 0.4 0.8 0.7 1.5 1.1 2.3 0.2 0.4 0.4 0.8 0.6 1.3 0.5 0.9 0.9 1.9 1.4 2.8 0.1 0.2 0.2 0.5 0.3 0.7 0.6 1.2 1.2 2.3 1.8 3.5 0.2 0.3 0.4 0.7 0.5 1 0.4 0.8 0.9 1.6 1.3 2.5 0.2 0.4 0.5 0.9 0.7 1.3l1.2 2.1c0.3 0.5 0.6 1 0.8 1.4 0.4 0.7 0.8 1.3 1.2 2l0.9 1.5c0.4 0.6 0.8 1.3 1.2 1.9l0.9 1.5c0.4 0.6 0.8 1.3 1.2 1.9 0.3 0.5 0.6 1 1 1.5 0.4 0.6 0.8 1.3 1.2 1.9 0.3 0.5 0.7 1 1 1.5 0.4 0.6 0.9 1.3 1.3 1.9 0.3 0.5 0.7 1 1 1.5 0.4 0.6 0.9 1.3 1.3 1.9 0.3 0.5 0.7 0.9 1 1.4 0.5 0.6 0.9 1.3 1.4 1.9 0.3 0.4 0.7 0.9 1 1.3l1.5 2.1 0.9 1.2c0.6 0.8 1.3 1.6 1.9 2.4 0.2 0.3 0.4 0.5 0.6 0.8 0.9 1.1 1.7 2.1 2.6 3.2 0.2 0.3 0.4 0.5 0.7 0.8 0.7 0.8 1.3 1.6 2 2.4 0.3 0.4 0.7 0.8 1 1.2 0.6 0.7 1.1 1.3 1.7 2 0.4 0.4 0.7 0.9 1.1 1.3 0.5 0.6 1.1 1.2 1.6 1.9 0.4 0.4 0.8 0.9 1.2 1.3 0.5 0.6 1.1 1.2 1.6 1.8 0.4 0.5 0.8 0.9 1.3 1.4 0.5 0.6 1.1 1.2 1.6 1.7 0.4 0.5 0.9 0.9 1.3 1.4 0.5 0.6 1.1 1.1 1.7 1.7l1.3 1.3 1.7 1.7 1.3 1.3c0.6 0.6 1.2 1.1 1.8 1.7l1.3 1.3 1.8 1.8c0.4 0.4 0.9 0.8 1.3 1.2 0.7 0.6 1.3 1.2 2 1.8 0.4 0.4 0.8 0.7 1.2 1.1 0.8 0.7 1.6 1.4 2.3 2.1 0.3 0.3 0.6 0.5 0.9 0.8 1.1 1 2.2 1.9 3.3 2.9 0.2 0.2 0.5 0.4 0.7 0.6 0.9 0.8 1.8 1.5 2.7 2.3 0.4 0.3 0.8 0.7 1.2 1 0.7 0.6 1.4 1.2 2.2 1.8 0.5 0.4 0.9 0.8 1.4 1.1 0.7 0.6 1.4 1.1 2 1.7l1.5 1.2c0.7 0.5 1.3 1.1 2 1.6l1.5 1.2c0.7 0.5 1.3 1 2 1.5 0.5 0.4 1.1 0.8 1.6 1.2 0.7 0.5 1.3 1 2 1.5 0.5 0.4 1.1 0.8 1.6 1.2l2.1 1.5c0.5 0.4 1.1 0.8 1.6 1.2l2.1 1.5c0.5 0.4 1.1 0.8 1.6 1.1 0.7 0.5 1.5 1 2.2 1.5 0.5 0.4 1 0.7 1.6 1.1 0.8 0.5 1.6 1.1 2.3 1.6 0.5 0.3 1 0.7 1.5 1 0.9 0.6 1.8 1.2 2.6 1.7 0.4 0.3 0.8 0.5 1.2 0.8 1.3 0.8 2.6 1.7 3.9 2.5 0.2 0.1 0.4 0.2 0.6 0.4 1.1 0.7 2.2 1.4 3.4 2.1 0.5 0.3 0.9 0.6 1.4 0.9 0.9 0.5 1.7 1.1 2.6 1.6 0.5 0.3 1.1 0.7 1.6 1 0.8 0.5 1.6 1 2.4 1.4 0.2 0.1 0.3 0.2 0.5 0.3v-47.2c-34.1-23-60.8-49.4-79.2-78.4-18.5-29.1-27.9-59.6-27.9-90.8 0-31.2 9.4-61.8 27.9-90.8 18.8-29.6 46.2-56.5 81.4-79.9 36.4-24.2 79-43.2 126.6-56.6 0.7-0.2 1.3-0.4 2-0.5-5.1-12.3-8.1-25.5-8.7-39.1-2.3 0.6-4.7 1.3-7 2-0.2 0.1-0.4 0.1-0.6 0.2-2.4 0.7-4.7 1.4-7 2.1h-0.2c-2.3 0.7-4.5 1.4-6.8 2.1-0.2 0.1-0.3 0.1-0.5 0.2-2.3 0.7-4.6 1.5-6.9 2.2-0.1 0-0.2 0.1-0.3 0.1-2.2 0.7-4.4 1.5-6.6 2.3-0.1 0-0.3 0.1-0.4 0.1-2.3 0.8-4.5 1.6-6.7 2.4-0.1 0-0.2 0.1-0.3 0.1-2.2 0.8-4.3 1.6-6.5 2.4-0.1 0-0.2 0.1-0.3 0.1-2.2 0.8-4.4 1.7-6.6 2.6-0.1 0.1-0.3 0.1-0.4 0.2-2.1 0.8-4.2 1.7-6.3 2.6-0.1 0-0.2 0.1-0.2 0.1-2.2 0.9-4.3 1.8-6.4 2.7-0.2 0.1-0.3 0.1-0.5 0.2-2.1 0.9-4.1 1.8-6.2 2.7-0.1 0-0.1 0.1-0.2 0.1-2.1 0.9-4.2 1.9-6.3 2.8l-0.6 0.3c-2 0.9-4 1.9-6 2.9h-0.1c-2 1-4.1 2-6.1 3l-0.6 0.3c-4 2-7.9 4-11.8 6.1-0.2 0.1-0.4 0.2-0.7 0.4-3.8 2.1-7.6 4.2-11.4 6.4-0.2 0.1-0.5 0.3-0.7 0.4-3.7 2.2-7.4 4.4-11 6.6-0.2 0.1-0.5 0.3-0.7 0.5-3.6 2.2-7.1 4.5-10.5 6.8-0.2 0.2-0.5 0.3-0.7 0.5-3.4 2.3-6.8 4.7-10.1 7.1-0.2 0.2-0.5 0.4-0.7 0.5-3.3 2.4-6.5 4.8-9.7 7.3-0.2 0.2-0.5 0.4-0.7 0.6-3.2 2.5-6.2 5-9.3 7.5-0.2 0.2-0.5 0.4-0.7 0.6-3 2.5-6 5.1-8.8 7.7-0.2 0.2-0.5 0.4-0.7 0.7-1.4 1.3-2.9 2.6-4.3 3.9-1.4 1.3-2.8 2.6-4.1 3.9l-0.7 0.7c-1.4 1.3-2.7 2.7-4 4l-0.2 0.2c-1.3 1.3-2.5 2.6-3.8 3.9l-0.7 0.7c-1.3 1.4-2.6 2.7-3.8 4.1l-0.3 0.3c-1.2 1.3-2.3 2.6-3.4 3.9-0.2 0.3-0.4 0.5-0.7 0.8l-3.6 4.2c-0.1 0.1-0.2 0.3-0.4 0.4-1.1 1.3-2.1 2.6-3.2 3.9-0.2 0.3-0.4 0.5-0.6 0.8l-3.3 4.2c-0.1 0.2-0.3 0.4-0.4 0.5-1 1.3-1.9 2.6-2.9 3.9-0.2 0.3-0.4 0.5-0.6 0.8-1 1.4-2.1 2.9-3.1 4.3-0.2 0.2-0.3 0.4-0.4 0.6-0.9 1.3-1.8 2.6-2.6 3.9-0.2 0.3-0.4 0.5-0.5 0.8-1 1.4-1.9 2.9-2.8 4.4-0.2 0.2-0.3 0.5-0.5 0.7l-2.4 3.9c-0.2 0.3-0.3 0.5-0.5 0.8-0.9 1.5-1.7 2.9-2.6 4.4-0.2 0.3-0.3 0.5-0.5 0.8-0.7 1.3-1.5 2.6-2.2 3.9-0.1 0.3-0.3 0.5-0.4 0.8-0.8 1.5-1.6 3-2.3 4.5-0.2 0.3-0.3 0.6-0.4 0.9-0.7 1.3-1.3 2.6-1.9 4-0.1 0.3-0.3 0.5-0.4 0.8l-2.1 4.5c-0.1 0.3-0.3 0.6-0.4 1-0.6 1.3-1.2 2.7-1.7 4-0.1 0.3-0.2 0.5-0.3 0.8-0.6 1.5-1.2 3.1-1.8 4.6-0.1 0.3-0.3 0.7-0.4 1-0.5 1.4-1 2.7-1.5 4.1-0.1 0.2-0.2 0.5-0.3 0.7-0.5 1.6-1.1 3.1-1.6 4.7-0.1 0.4-0.2 0.7-0.3 1.1-0.4 1.4-0.9 2.8-1.3 4.2-0.1 0.2-0.1 0.4-0.2 0.7-0.5 1.6-0.9 3.1-1.3 4.7-0.1 0.4-0.2 0.7-0.3 1.1-0.4 1.4-0.7 2.9-1.1 4.3 0 0.2-0.1 0.4-0.1 0.6-0.4 1.6-0.7 3.2-1 4.8-0.1 0.4-0.2 0.8-0.2 1.2-0.3 1.5-0.6 3-0.8 4.4 0 0.2-0.1 0.3-0.1 0.5-0.3 1.6-0.5 3.2-0.8 4.8-0.1 0.4-0.1 0.8-0.2 1.2-0.2 1.5-0.4 3.1-0.6 4.6v0.4c-0.2 1.6-0.3 3.3-0.5 4.9 0 0.4-0.1 0.8-0.1 1.2-0.1 1.6-0.3 3.2-0.3 4.8v0.2c-0.1 1.7-0.2 3.3-0.2 5v1.2c0 1.7-0.1 3.3-0.1 5v3.9c0.1-0.2 0.1 0.2 0.1 0.6z" p-id="2511"></path><path d="M759 945.5H265.2c-44 0-80-36-80-80v-464c0-44 36-80 80-80H759c44 0 80 36 80 80v464.1c0 43.9-36 79.9-80 79.9z" fill="#FFFFFF" p-id="2512"></path><path d="M819 382.1c-10.8 0-19.6 8.6-20 19.4v464.1c0 10.6-4.2 20.6-11.8 28.2-7.6 7.6-17.6 11.8-28.2 11.8H265.2c-10.6 0-20.6-4.2-28.2-11.8-7.6-7.6-11.8-17.6-11.8-28.2V401.5c-0.3-10.7-9.1-19.4-20-19.4-10.8 0-19.6 8.6-20 19.4v464.1c0 44 36 80 80 80H759c44 0 80-36 80-80V401.5c-0.3-10.8-9.1-19.4-20-19.4z" p-id="2513"></path><path d="M512.1 361.7c-50.5 0-100.4-10.9-144.2-31.5-42.8-20.1-79.3-49.2-105.5-84.1-6.6-8.8-4.9-21.4 4-28 8.8-6.6 21.4-4.9 28 4 46.8 62.4 128.3 99.6 217.8 99.6s170.9-37.2 217.8-99.6c6.6-8.8 19.2-10.6 28-4s10.6 19.2 4 28c-26.2 34.9-62.7 64-105.5 84.1-44 20.7-93.8 31.5-144.4 31.5z" fill="#F12021" p-id="2514"></path><path d="M742.1 829.5h-460c-11 0-20-9-20-20s9-20 20-20h460c11 0 20 9 20 20s-9 20-20 20z" fill="#F12021" p-id="2515"></path></svg>